<svg width="164" height="64" viewBox="0 0 164 64" fill="none" xmlns="http://www.w3.org/2000/svg">
<path d="M4.00159 4.00159L20.2392 6.6618C25.6453 7.54749 31.1709 7.39196 36.5187 6.20357L38.4298 5.77887C43.6893 4.61008 49.1488 4.68191 54.3758 5.98865V5.98865C59.6715 7.31259 65.2049 7.36866 70.5263 6.15232L71.5464 5.91918C77.0661 4.65753 82.8013 4.67583 88.3128 5.97266L88.6746 6.05779C94.1084 7.33633 99.767 7.31725 105.192 6.00209V6.00209C110.617 4.68692 116.276 4.66784 121.709 5.94638L123.022 6.25523C127.931 7.41031 133.011 7.65415 138.008 6.97462L159.871 4.00159" stroke="#F5A517" stroke-width="8" stroke-linecap="round"/>
<path d="M44.2422 35.001C44.2422 42.379 42.3652 48.8686 39.5419 53.3859C36.6833 57.9596 33.2465 59.999 30.1189 59.999C26.9913 59.999 23.5544 57.9596 20.6959 53.3859C17.8725 48.8686 15.9955 42.379 15.9955 35.001C15.9955 27.6231 17.8725 21.1335 20.6959 16.6162C23.5544 12.0425 26.9913 10.0031 30.1189 10.0031C33.2465 10.0031 36.6833 12.0425 39.5419 16.6162C42.3652 21.1335 44.2422 27.6231 44.2422 35.001Z" stroke="#F5A517" stroke-width="8"/>
<path d="M77.591 35.001C77.591 42.379 75.714 48.8686 72.8907 53.3859C70.0321 57.9596 66.5953 59.999 63.4677 59.999C60.3401 59.999 56.9032 57.9596 54.0447 53.3859C51.2213 48.8686 49.3443 42.379 49.3443 35.001C49.3443 27.6231 51.2213 21.1335 54.0447 16.6162C56.9032 12.0425 60.3401 10.0031 63.4677 10.0031C66.5953 10.0031 70.0321 12.0425 72.8907 16.6162C75.714 21.1335 77.591 27.6231 77.591 35.001Z" stroke="#F5A517" stroke-width="8"/>
<path d="M110.94 35.001C110.94 42.379 109.063 48.8686 106.24 53.3859C103.381 57.9596 99.9441 59.999 96.8165 59.999C93.6889 59.999 90.252 57.9596 87.3935 53.3859C84.5701 48.8686 82.6931 42.379 82.6931 35.001C82.6931 27.6231 84.5701 21.1335 87.3935 16.6162C90.252 12.0425 93.6889 10.0031 96.8165 10.0031C99.9441 10.0031 103.381 12.0425 106.24 16.6162C109.063 21.1335 110.94 27.6231 110.94 35.001Z" stroke="#F5A517" stroke-width="8"/>
<path d="M144.289 35.001C144.289 42.379 142.412 48.8686 139.588 53.3859C136.73 57.9596 133.293 59.999 130.165 59.999C127.038 59.999 123.601 57.9596 120.742 53.3859C117.919 48.8686 116.042 42.379 116.042 35.001C116.042 27.6231 117.919 21.1335 120.742 16.6162C123.601 12.0425 127.038 10.0031 130.165 10.0031C133.293 10.0031 136.73 12.0425 139.588 16.6162C142.412 21.1335 144.289 27.6231 144.289 35.001Z" stroke="#F5A517" stroke-width="8"/>
</svg>
